<svg width="493" height="500" viewBox="0 0 493 500" fill="none" xmlns="http://www.w3.org/2000/svg">
<mask id="mask0_182_352" style="mask-type:luminance" maskUnits="userSpaceOnUse" x="0" y="-9" width="493" height="509">
<path d="M0 -8.99994H493V500H0V-8.99994Z" fill="white"/>
</mask>
<g mask="url(#mask0_182_352)">
<path d="M409.476 196.82C500.002 252.636 500.002 343.132 409.475 398.949C318.948 454.765 172.174 454.765 81.6475 398.949C-8.87812 343.133 -8.87811 252.637 81.6485 196.82C172.176 141.004 318.948 141.004 409.476 196.82Z" fill="#F5F5F5"/>
</g>
<mask id="mask1_182_352" style="mask-type:luminance" maskUnits="userSpaceOnUse" x="0" y="-9" width="493" height="509">
<path d="M0 -8.99994H493V500H0V-8.99994Z" fill="white"/>
</mask>
<g mask="url(#mask1_182_352)">
<path d="M273.324 398.489C285.211 405.575 304.485 405.575 316.371 398.489C328.259 391.404 328.259 379.915 316.371 372.83C304.485 365.743 285.212 365.743 273.324 372.83C261.437 379.915 261.437 391.404 273.324 398.489Z" fill="#E1E1E1"/>
<path d="M54.31 362.551L70.0643 371.945C71.2425 372.647 73.1544 372.647 74.3337 371.945L258.306 262.28C259.485 261.577 259.485 260.438 258.306 259.735L242.549 250.343C241.37 249.64 239.458 249.64 238.28 250.343L54.31 360.006C53.1317 360.708 53.1317 361.848 54.31 362.551Z" fill="#E1E1E1"/>
</g>
<mask id="mask2_182_352" style="mask-type:luminance" maskUnits="userSpaceOnUse" x="0" y="-9" width="493" height="509">
<path d="M0 -8.99994H493V500H0V-8.99994Z" fill="white"/>
</mask>
<g mask="url(#mask2_182_352)">
<path d="M66.4967 327.186C66.4967 327.186 71.2827 307.621 64.3019 293.217C57.32 278.814 44.926 278.048 40.1725 279.208C35.418 280.369 31.0904 286.013 37.2835 292.391C43.4756 298.77 56.7797 311.759 57.4275 320.528L66.4967 327.186Z" fill="#00DFBF"/>
<mask id="mask3_182_352" style="mask-type:luminance" maskUnits="userSpaceOnUse" x="34" y="278" width="35" height="50">
<path d="M34.2139 278.837H68.0975V327.186H34.2139V278.837Z" fill="white"/>
</mask>
<g mask="url(#mask3_182_352)">
<g opacity="0.149994">
<path d="M66.4972 327.186C66.4972 327.186 71.2832 307.621 64.3023 293.217C57.3205 278.815 44.9265 278.048 40.1729 279.209C35.4185 280.369 31.0909 286.013 37.284 292.392C43.476 298.771 56.7801 311.759 57.4279 320.528L66.4972 327.186Z" fill="black"/>
</g>
</g>
<path d="M44.0938 282.516C49.9683 286.031 64.9733 297.598 64.3718 323.861" stroke="white" stroke-width="1.33333" stroke-miterlimit="10" stroke-linecap="round"/>
<path d="M65.5379 321.46C66.4963 316.412 63.0818 311.518 54.8458 310.167C46.6087 308.816 47.8284 309.007 39.0658 303.173C30.3042 297.338 22.3561 299.105 20.4235 302.666C18.3223 306.536 25.5458 311.06 30.5054 315.762C35.464 320.464 38.3539 325.271 35.2046 330.21C32.5069 334.441 31.9824 338.63 38.3677 342.718C44.0412 346.351 51.8069 344.947 52.3729 351.912C52.6963 355.882 57.22 361.658 63.5719 360.259C82.2289 350.397 65.5379 321.46 65.5379 321.46Z" fill="#00DFBF"/>
<path d="M28.1484 303.011C37.9217 307.21 62.7906 324.078 68.3062 352.915" stroke="white" stroke-width="1.33333" stroke-miterlimit="10" stroke-linecap="round"/>
<path d="M41.959 333.316C41.959 333.316 51.0746 330.287 60.3528 332.313" stroke="white" stroke-width="1.33333" stroke-miterlimit="10" stroke-linecap="round"/>
</g>
<mask id="mask4_182_352" style="mask-type:luminance" maskUnits="userSpaceOnUse" x="0" y="-9" width="493" height="509">
<path d="M0 -8.99994H493V500H0V-8.99994Z" fill="white"/>
</mask>
<g mask="url(#mask4_182_352)">
<path d="M293.641 69.0994L313.665 57.1501C313.665 57.1501 313.669 129.957 313.669 133.542C313.669 137.126 317.673 140.709 317.673 140.709L297.646 152.643C297.646 152.643 293.641 149.06 293.641 145.481V69.0994Z" fill="#2B454E"/>
<path d="M269.296 68.8983L277.739 79.9986L277.694 110.787L268.578 135.31L297.647 152.643C295.123 150.287 293.843 147.898 293.641 145.48V83.4068L269.296 68.8983Z" fill="#375A64"/>
<path d="M268.578 135.31V140.086L297.646 157.418V152.643L268.578 135.31Z" fill="#00DFBF"/>
<path d="M297.647 157.418L317.674 145.484V140.709L297.647 152.644V157.418Z" fill="#00DFBF"/>
<mask id="mask5_182_352" style="mask-type:luminance" maskUnits="userSpaceOnUse" x="297" y="140" width="21" height="18">
<path d="M297.647 140.708H317.673V157.417H297.647V140.708Z" fill="white"/>
</mask>
<g mask="url(#mask5_182_352)">
<g opacity="0.100006">
<path d="M297.647 157.417L317.674 145.483V140.708L297.647 152.643V157.417Z" fill="black"/>
</g>
</g>
<path d="M292.72 18.8786L292.719 18.8807C289.318 16.7795 284.584 17.0381 279.347 20.1603L279.156 20.2743C268.803 26.4454 260.41 41.4538 260.41 53.797V54.024C260.41 60.4181 262.667 64.8352 266.276 66.7572L266.274 66.7592L281.434 75.9731L306.729 27.4064L292.72 18.8786Z" fill="#F0F0F0"/>
<path d="M266.276 66.7567L266.274 66.7587L281.434 75.9736L289.819 59.875L262.154 43.3854C261.046 46.8985 260.41 50.4452 260.41 53.7965V54.0245C260.41 60.4176 262.666 64.8347 266.276 66.7567Z" fill="#E1E1E1"/>
<path d="M325.451 30.7634L325.44 30.7736C321.596 28.4933 316.42 28.5849 310.671 31.4862C310.069 31.7814 309.457 32.1174 308.836 32.4839C308.107 32.9216 307.397 33.3797 306.688 33.8887C305.513 34.7133 304.37 35.6193 303.255 36.6169C301.215 38.4188 299.283 40.4752 297.488 42.7249C292.677 48.7719 288.89 56.1625 286.889 63.543C285.882 67.2689 285.331 70.9846 285.331 74.5374C285.331 82.0808 287.835 87.4457 291.907 90.0518L277.433 81.4395L277.452 81.4089C272.394 78.0903 268.913 72.1655 268.913 64.7443C268.913 61.3543 269.417 57.8015 270.343 54.2487C272.306 46.7053 276.151 39.1212 281.07 32.942C282.866 30.6922 284.799 28.6256 286.84 26.834C287.954 25.8363 289.097 24.9201 290.27 24.1057C290.981 23.5967 291.701 23.1284 292.42 22.7009C293.031 22.3344 293.653 22.0086 294.274 21.7134C299.953 19.0463 305.878 19.4229 310.671 21.9985L310.681 21.9883L311.085 22.2224C311.253 22.3242 311.429 22.426 311.597 22.538L325.451 30.7634Z" fill="#00DFBF"/>
<mask id="mask6_182_352" style="mask-type:luminance" maskUnits="userSpaceOnUse" x="268" y="54" width="24" height="37">
<path d="M268.914 54.2487H291.908V90.0518H268.914V54.2487Z" fill="white"/>
</mask>
<g mask="url(#mask6_182_352)">
<g opacity="0.100006">
<path d="M277.433 81.4395L277.453 81.4089C272.395 78.0903 268.913 72.1655 268.913 64.7443C268.913 61.3543 269.417 57.8015 270.344 54.2487L286.889 63.543C285.882 67.2689 285.331 70.9846 285.331 74.5374C285.331 82.0808 287.835 87.4457 291.908 90.0518L277.433 81.4395Z" fill="black"/>
</g>
</g>
<path d="M332.353 46.5015C332.353 61.9853 321.832 80.8081 308.846 88.5449C302.32 92.4438 296.404 92.79 292.144 90.1941C292.065 90.1533 291.987 90.1024 291.907 90.0515C287.835 87.4455 285.331 82.0806 285.331 74.5372C285.331 59.0534 295.851 40.2306 308.836 32.4836C315.315 28.6254 321.192 28.2488 325.441 30.7734C329.71 33.298 332.353 38.7443 332.353 46.5015Z" fill="#00DFBF"/>
<mask id="mask7_182_352" style="mask-type:luminance" maskUnits="userSpaceOnUse" x="285" y="29" width="48" height="63">
<path d="M285.331 29.1708H332.353V91.8623H285.331V29.1708Z" fill="white"/>
</mask>
<g mask="url(#mask7_182_352)">
<g opacity="0.199997">
<path d="M332.354 46.5015C332.354 61.9853 321.832 80.8081 308.847 88.5449C302.32 92.4438 296.404 92.79 292.145 90.1941C292.066 90.1533 291.987 90.1024 291.907 90.0515C287.836 87.4455 285.332 82.0806 285.332 74.5372C285.332 59.0534 295.851 40.2306 308.837 32.4836C315.316 28.6254 321.192 28.2488 325.441 30.7734C329.71 33.298 332.354 38.7443 332.354 46.5015Z" fill="black"/>
</g>
</g>
<path d="M404.441 42.4964C404.441 42.4964 380.722 55.0647 360.464 91.2902C356.486 98.404 353.34 105.192 350.852 111.491C340.678 137.259 341.523 155.008 341.523 155.008C334.454 137.134 325.665 118.623 311.001 104.452C301.925 95.6798 292.973 88.8857 292.973 88.8857L292.983 88.8684C289.102 86.5443 286.839 81.4919 286.837 74.5319C286.839 69.9478 287.793 65.0634 289.494 60.2697C290.554 57.235 291.913 54.236 293.51 51.3795C297.632 44.0092 303.324 37.5754 309.594 33.8363C315.433 30.3578 320.803 29.8559 324.692 32.1627L324.702 32.1454C324.702 32.1454 334.877 36.7529 346.774 40.4818C365.992 46.5073 385.912 45.1106 404.441 42.4964Z" fill="#F0F0F0"/>
<path d="M350.852 111.492C340.679 137.259 341.524 155.008 341.524 155.008C334.453 137.133 325.665 118.624 311.001 104.452C301.925 95.6803 292.973 88.8861 292.973 88.8861L292.983 88.8688C289.102 86.5437 286.838 81.4914 286.836 74.5313C286.838 69.9483 287.794 65.0639 289.495 60.2702C307.468 69.5625 336.551 86.6974 350.852 111.492Z" fill="#E1E1E1"/>
<path d="M449.125 77.4382C449.125 93.5836 444.314 111.256 436.297 127.575V127.585C426.023 148.484 410.523 167.144 393.17 177.487C362.269 195.903 337.224 180.969 337.224 144.138C337.224 135.708 338.536 126.872 340.922 118.026C346.818 96.2406 359.261 74.4249 374.82 58.707C377.009 56.4877 379.257 54.4008 381.564 52.4463C382.521 51.6319 383.496 50.8378 384.473 50.0743H384.482C385.873 48.9851 387.273 47.9467 388.693 46.9694C390.172 45.9514 391.661 44.9843 393.17 44.0885C424.071 25.6729 449.125 40.5968 449.125 77.4382Z" fill="#00DFBF"/>
<mask id="mask8_182_352" style="mask-type:luminance" maskUnits="userSpaceOnUse" x="337" y="118" width="100" height="68">
<path d="M337.224 118.026H436.297V185.374H337.224V118.026Z" fill="white"/>
</mask>
<g mask="url(#mask8_182_352)">
<g opacity="0.100006">
<path d="M436.298 127.585C426.024 148.485 410.523 167.145 393.17 177.488C362.269 195.903 337.225 180.969 337.225 144.138C337.225 135.709 338.536 126.873 340.922 118.026H340.931C343.021 122.791 350.536 129.591 353.898 124.827C351.798 132.747 350.654 140.585 350.654 147.986C350.654 158.573 352.941 167.114 357.26 172.703C360.948 177.467 366.016 179.89 372.315 179.88C378.438 179.89 385.558 177.559 392.903 173.192C407.664 164.396 421.232 148.587 430.854 130.68C430.854 130.68 432.778 132.36 436.298 127.585Z" fill="black"/>
</g>
</g>
<path d="M445.299 79.4944C445.299 95.762 439.768 114.127 430.855 130.679C421.231 148.586 407.664 164.396 392.902 173.191C385.558 177.558 378.438 179.89 372.315 179.879C366.015 179.89 360.947 177.467 357.26 172.702C352.941 167.114 350.653 158.573 350.653 147.985C350.653 140.585 351.797 132.746 353.897 124.826C354.686 121.833 355.613 118.83 356.667 115.837C358.502 110.625 360.72 105.413 363.264 100.374C363.787 99.3352 364.319 98.307 364.862 97.289C365.759 95.589 366.695 93.8991 367.672 92.2499C370.985 86.5797 374.701 81.1843 378.705 76.2266C378.744 76.1757 378.804 76.1146 378.843 76.0535C381.515 72.7552 384.305 69.6605 387.193 66.7999C389.275 64.7436 391.405 62.8195 393.574 61.0279C394.481 60.2745 395.398 59.5518 396.325 58.8493C397.439 58.0146 398.563 57.2104 399.697 56.4367C400.801 55.6935 401.915 54.9911 403.03 54.3192C410.395 49.9215 417.513 47.6208 423.636 47.6106C437.204 47.6106 445.299 59.5416 445.299 79.4944Z" fill="#00DFBF"/>
<mask id="mask9_182_352" style="mask-type:luminance" maskUnits="userSpaceOnUse" x="350" y="47" width="96" height="133">
<path d="M350.653 47.6111H445.299V179.88H350.653V47.6111Z" fill="white"/>
</mask>
<g mask="url(#mask9_182_352)">
<g opacity="0.300003">
<path d="M445.299 79.4944C445.299 95.762 439.768 114.127 430.855 130.679C421.231 148.586 407.664 164.396 392.902 173.191C385.558 177.558 378.438 179.89 372.315 179.879C366.015 179.89 360.947 177.467 357.26 172.702C352.941 167.114 350.653 158.573 350.653 147.985C350.653 140.585 351.797 132.746 353.897 124.826C354.686 121.833 355.613 118.83 356.667 115.837C358.502 110.625 360.72 105.413 363.264 100.374C363.787 99.3352 364.319 98.307 364.862 97.289C365.759 95.589 366.695 93.8991 367.672 92.2499C370.985 86.5797 374.701 81.1843 378.705 76.2266C378.744 76.1757 378.804 76.1146 378.843 76.0535C381.515 72.7552 384.305 69.6605 387.193 66.7999C389.275 64.7436 391.405 62.8195 393.574 61.0279C394.481 60.2745 395.398 59.5518 396.325 58.8493C397.439 58.0146 398.563 57.2104 399.697 56.4367C400.801 55.6935 401.915 54.9911 403.03 54.3192C410.395 49.9215 417.513 47.6208 423.636 47.6106C437.204 47.6106 445.299 59.5416 445.299 79.4944Z" fill="black"/>
</g>
</g>
<path d="M397.748 88.5491L378.118 126.388C372.605 124.25 363.268 120.83 355.666 118.824C355.982 117.827 356.316 116.839 356.672 115.842C358.505 110.63 360.724 105.417 363.268 100.378C363.791 99.3399 364.324 98.3117 364.865 97.2937C365.763 95.5937 366.7 93.9038 367.675 92.2546C370.988 86.5844 374.705 81.189 378.708 76.2313C378.748 76.1804 378.807 76.1193 378.846 76.0583C379.439 75.3355 380.03 74.6127 380.632 73.9103C387.988 81.7183 397.748 88.5491 397.748 88.5491Z" fill="#E1E1E1"/>
<path d="M379.757 126.291C375.32 126.291 372.671 122.59 372.671 116.391V116.202C372.671 106.459 379.32 94.5691 387.492 89.698L387.651 89.6033C389.83 88.3054 391.971 87.6182 393.843 87.6182C398.279 87.6182 400.929 91.3186 400.929 97.5183V97.7076C400.93 107.45 394.28 119.339 386.107 124.211L385.948 124.306C383.77 125.605 381.629 126.291 379.757 126.291Z" fill="#F5F5F5"/>
</g>
<mask id="mask10_182_352" style="mask-type:luminance" maskUnits="userSpaceOnUse" x="0" y="-9" width="493" height="509">
<path d="M0 -8.99994H493V500H0V-8.99994Z" fill="white"/>
</mask>
<g mask="url(#mask10_182_352)">
<path d="M250.289 97.7858C249.085 97.1241 247.538 97.2157 245.842 98.2236L76.2995 199.291C74.4557 200.39 72.7795 202.385 71.5273 204.747L63.521 199.973C64.7634 197.611 66.4484 195.626 68.2932 194.516L237.826 93.4491C239.601 92.4006 241.208 92.3497 242.43 93.1132V93.103L250.289 97.7858Z" fill="#375A64"/>
<path d="M63.7671 362.028V362.018C62.2683 361.153 61.3218 359.106 61.3218 356.195V208.259C61.3218 207.923 61.3316 207.587 61.3612 207.251C61.3711 207.017 61.4007 206.783 61.4302 206.549C61.45 206.325 61.4795 206.101 61.519 205.877C61.5387 205.724 61.5683 205.561 61.6077 205.399C61.7063 204.839 61.8444 204.279 62.012 203.719C62.0711 203.475 62.15 203.23 62.2289 202.986C62.3374 202.65 62.4655 202.324 62.5839 201.998C62.6036 201.968 62.6134 201.927 62.6332 201.897C62.7613 201.571 62.8895 201.255 63.0374 200.95C63.1853 200.614 63.3529 200.288 63.5206 199.973L71.5269 204.747C71.3494 205.083 71.1818 205.429 71.0142 205.785C70.886 206.07 70.7677 206.355 70.6592 206.641C70.6395 206.681 70.6198 206.732 70.6099 206.773C70.4719 207.099 70.3535 207.435 70.2451 207.771C70.1268 208.117 70.0183 208.473 69.9296 208.819C69.8507 209.084 69.7915 209.348 69.7422 209.613C69.476 210.753 69.338 211.914 69.338 213.034V360.969C69.338 363.911 70.3042 365.978 71.8227 366.833L63.7671 362.028Z" fill="#1A2E35"/>
<path d="M245.838 98.2278L76.3011 199.287C72.4537 201.58 69.335 207.733 69.335 213.03V360.971C69.335 366.267 72.4537 368.701 76.3011 366.408L245.838 265.35C249.686 263.056 252.805 256.903 252.805 251.607V103.665C252.805 98.3683 249.686 95.9343 245.838 98.2278Z" fill="#2B454E"/>
<path d="M236.499 264.028L85.6405 353.954C83.6468 355.142 82.0298 353.881 82.0298 351.135V207.73C82.0298 204.984 83.6468 201.796 85.6405 200.608L236.499 110.682C238.493 109.494 240.11 110.755 240.11 113.5V256.906C240.11 259.651 238.493 262.84 236.499 264.028Z" fill="#00DFBF"/>
<mask id="mask11_182_352" style="mask-type:luminance" maskUnits="userSpaceOnUse" x="82" y="110" width="159" height="245">
<path d="M82.0298 110.235H240.11V354.401H82.0298V110.235Z" fill="white"/>
</mask>
<g mask="url(#mask11_182_352)">
<g opacity="0.100006">
<path d="M236.499 264.028L85.6405 353.954C83.6468 355.142 82.0298 353.881 82.0298 351.135V207.73C82.0298 204.984 83.6468 201.796 85.6405 200.608L236.499 110.682C238.493 109.494 240.11 110.755 240.11 113.5V256.906C240.11 259.651 238.493 262.84 236.499 264.028Z" fill="black"/>
</g>
</g>
<path d="M78.0134 287.407C78.0134 289.179 76.9692 291.237 75.6825 292.005C74.3948 292.773 73.3506 291.958 73.3506 290.186C73.3506 288.414 74.3948 286.355 75.6825 285.588C76.9692 284.82 78.0134 285.634 78.0134 287.407Z" fill="#E1E1E1"/>
<path d="M75.6825 263.696C74.9025 264.162 74.2705 265.408 74.2705 266.482V279.248C74.2705 280.321 74.9025 280.815 75.6825 280.35C76.4624 279.886 77.0944 278.639 77.0944 277.566V264.799C77.0944 263.725 76.4624 263.231 75.6825 263.696Z" fill="#E1E1E1"/>
<path d="M225.533 129.378L105.378 201.001V342.139L225.533 270.564V129.378Z" fill="#FAFAFA"/>
<path d="M225.533 129.378L221.528 126.99L101.372 198.614L105.378 201L225.533 129.378Z" fill="white"/>
<path d="M101.372 198.614L105.377 201.002V342.139L101.373 344.526L101.372 198.614Z" fill="#E1E1E1"/>
<path d="M119.941 221.303C119.941 221.303 120.009 221.635 120.009 222.818C120.009 224.06 119.941 224.413 119.941 224.413L112.936 228.588C112.936 228.588 112.869 228.257 112.869 227.073C112.869 225.924 112.936 225.478 112.936 225.478L115.106 224.186V208.45L113.299 209.527C113.299 209.527 113.231 209.194 113.231 208.013C113.231 206.862 113.299 206.416 113.299 206.416L119.353 202.808L125.115 214.114V202.484L123.307 203.562C123.307 203.562 123.24 203.228 123.24 202.046C123.24 200.895 123.307 200.451 123.307 200.451L130.176 196.356C130.176 196.356 130.243 196.69 130.243 197.871C130.243 199.116 130.176 199.467 130.176 199.467L128.142 200.679V219.524L124.775 221.532L118.133 208.636V222.381L119.941 221.303Z" fill="#375A64"/>
<path d="M143.952 188.144V193.555C143.952 193.555 143.455 193.945 142.846 194.307C142.146 194.726 141.693 194.902 141.693 194.902V192.602L136.25 195.846V201.569L138.847 200.02V197.75C138.847 197.75 139.253 197.413 139.977 196.984C140.812 196.485 141.06 196.431 141.06 196.431V204.111C141.06 204.111 140.881 204.312 139.977 204.851C139.209 205.309 138.847 205.43 138.847 205.43V203.068L136.25 204.616V211.582L141.919 208.202V205.278C141.919 205.278 142.371 204.916 143.072 204.498C143.682 204.135 144.178 203.931 144.178 203.931V209.966L131.189 217.708C131.189 217.708 131.12 217.189 131.12 216.194C131.12 215.138 131.189 214.598 131.189 214.598L133.221 213.387V197.652L131.413 198.729C131.413 198.729 131.346 198.303 131.346 197.215C131.346 196.312 131.413 195.617 131.413 195.617L143.952 188.144Z" fill="#375A64"/>
<path d="M154.613 185.832L157.755 183.961L160.578 196.769L160.736 196.674C160.736 196.674 161.979 186.17 162.431 180.241L160.624 181.317C160.624 181.317 160.578 180.784 160.578 179.728C160.578 178.702 160.624 178.206 160.624 178.206L166.769 174.544C166.769 174.544 166.836 174.971 166.836 175.996C166.836 177.179 166.769 177.654 166.769 177.654L165.187 178.597C164.622 185.309 163.018 198.735 163.018 198.735L158.409 201.483L156.082 190.898L153.755 204.258L149.146 207.003C149.146 207.003 147.429 195.804 146.999 189.438L145.418 190.38C145.418 190.38 145.373 189.848 145.373 188.79C145.373 187.764 145.418 187.272 145.418 187.272L151.812 183.46C151.812 183.46 151.88 183.886 151.88 184.912C151.88 186.095 151.812 186.57 151.812 186.57L150.005 187.647C150.32 193.242 151.653 202.087 151.653 202.087L151.812 201.994L154.613 185.832Z" fill="#375A64"/>
<path d="M177.856 173.72C177.856 173.72 177.518 174.016 176.659 174.527C175.733 175.08 175.371 175.202 175.371 175.202V172.993C175.371 172.993 174.581 172.624 173.067 173.527C171.552 174.429 170.4 176.454 170.4 178.04C170.4 179.127 170.648 180.131 171.667 179.959L174.626 179.501C176.206 179.275 178.602 179.432 178.602 183.569C178.602 187.611 176.546 191.138 172.728 193.413C169.09 195.583 167.441 193.922 167.441 193.922V189.755C167.441 189.755 167.893 189.393 168.638 188.947C169.475 188.45 169.925 188.273 169.925 188.273V190.605C169.925 190.605 170.762 191.227 172.728 190.055C174.851 188.789 175.575 186.898 175.575 185.373C175.575 183.787 174.603 183.279 173.563 183.43L170.333 183.927C168.096 184.263 167.374 182.519 167.374 179.812C167.374 176.144 169.972 172.014 173.067 170.169C175.619 168.647 177.856 169.8 177.856 169.8V173.72Z" fill="#375A64"/>
<path d="M216.145 144.606L184.091 163.713V186.176L216.145 167.07V144.606Z" fill="#E1E1E1"/>
<path d="M216.144 180.15L113.005 241.63V235.82L216.144 174.34V180.15Z" fill="#00DFBF"/>
<path d="M145.713 282.573L113.006 302.069V248.899L145.713 229.402V282.573Z" fill="#375A64"/>
<path d="M140.206 241.158L118.513 254.09C118.115 254.327 117.792 254.074 117.792 253.527C117.792 252.979 118.115 252.343 118.513 252.105L140.206 239.174C140.604 238.937 140.927 239.188 140.927 239.737C140.927 240.284 140.604 240.921 140.206 241.158Z" fill="white"/>
<path d="M140.206 250.69L118.513 263.621C118.115 263.858 117.792 263.606 117.792 263.058C117.792 262.511 118.115 261.874 118.513 261.637L140.206 248.706C140.604 248.468 140.927 248.72 140.927 249.269C140.927 249.816 140.604 250.452 140.206 250.69Z" fill="white"/>
<path d="M140.206 260.221L118.513 273.153C118.115 273.39 117.792 273.138 117.792 272.59C117.792 272.042 118.115 271.406 118.513 271.169L140.206 258.237C140.604 258 140.927 258.253 140.927 258.8C140.927 259.348 140.604 259.984 140.206 260.221Z" fill="white"/>
<path d="M140.206 269.754L118.513 282.685C118.115 282.922 117.792 282.67 117.792 282.122C117.792 281.575 118.115 280.938 118.513 280.701L140.206 267.771C140.604 267.532 140.927 267.785 140.927 268.332C140.927 268.88 140.604 269.516 140.206 269.754Z" fill="white"/>
<path d="M140.206 279.286L118.513 292.217C118.115 292.455 117.792 292.202 117.792 291.655C117.792 291.107 118.115 290.471 118.513 290.233L140.206 277.302C140.604 277.065 140.927 277.316 140.927 277.865C140.927 278.412 140.604 279.049 140.206 279.286Z" fill="white"/>
<path d="M140.206 245.699L118.513 258.631C118.115 258.868 117.792 258.616 117.792 258.068C117.792 257.52 118.115 256.884 118.513 256.647L140.206 243.716C140.604 243.478 140.927 243.731 140.927 244.278C140.927 244.826 140.604 245.462 140.206 245.699Z" fill="white"/>
<path d="M140.206 255.231L118.513 268.163C118.115 268.4 117.792 268.148 117.792 267.6C117.792 267.052 118.115 266.416 118.513 266.179L140.206 253.248C140.604 253.011 140.927 253.262 140.927 253.81C140.927 254.358 140.604 254.994 140.206 255.231Z" fill="white"/>
<path d="M140.206 264.763L118.513 277.695C118.115 277.932 117.792 277.68 117.792 277.132C117.792 276.584 118.115 275.948 118.513 275.711L140.206 262.779C140.604 262.542 140.927 262.794 140.927 263.342C140.927 263.89 140.604 264.526 140.206 264.763Z" fill="white"/>
<path d="M140.206 274.295L118.513 287.227C118.115 287.464 117.792 287.211 117.792 286.664C117.792 286.116 118.115 285.48 118.513 285.243L140.206 272.311C140.604 272.074 140.927 272.326 140.927 272.874C140.927 273.422 140.604 274.058 140.206 274.295Z" fill="white"/>
<path d="M216.144 276.113L152.946 313.784V225.091L216.144 187.419V276.113Z" fill="#E1E1E1"/>
<path d="M157.399 226.592L212.326 193.853C213.098 193.392 213.724 193.765 213.724 194.686V241.231C213.724 242.153 213.098 243.272 212.326 243.733L157.4 276.473C156.628 276.934 156.002 276.56 156.002 275.64L156.001 229.094C156.001 228.172 156.626 227.053 157.399 226.592Z" fill="#00DFBF"/>
<mask id="mask12_182_352" style="mask-type:luminance" maskUnits="userSpaceOnUse" x="156" y="193" width="58" height="84">
<path d="M156 193.655H213.724V276.67H156V193.655Z" fill="white"/>
</mask>
<g mask="url(#mask12_182_352)">
<g opacity="0.800003">
<path d="M157.399 226.592L212.326 193.853C213.098 193.392 213.724 193.765 213.724 194.686V241.231C213.724 242.153 213.098 243.272 212.326 243.733L157.4 276.473C156.628 276.934 156.002 276.56 156.002 275.64L156.001 229.094C156.001 228.172 156.626 227.053 157.399 226.592Z" fill="white"/>
</g>
</g>
<path d="M198.402 220.713L189.226 237.483L195.675 246.116L174.368 227.158L156.001 268.21L156.002 275.64C156.002 276.56 156.629 276.933 157.401 276.472L212.327 243.732C213.099 243.272 213.725 242.152 213.725 241.231V235.177L198.402 220.713Z" fill="#00DFBF"/>
<path d="M204.741 205.341C206.261 204.435 207.494 205.17 207.494 206.982C207.494 208.794 206.261 210.998 204.741 211.905C203.22 212.812 201.988 212.077 201.988 210.264C201.988 208.452 203.22 206.248 204.741 205.341Z" fill="#00DFBF"/>
<path d="M167.276 278.702L213.517 251.137V270.239L167.275 297.802L167.276 278.702Z" fill="#F0F0F0"/>
<path d="M163.07 300.308L113.006 330.151V311.057L163.07 281.215V300.308Z" fill="#00DFBF"/>
</g>
<mask id="mask13_182_352" style="mask-type:luminance" maskUnits="userSpaceOnUse" x="0" y="-9" width="493" height="509">
<path d="M0 -8.99994H493V500H0V-8.99994Z" fill="white"/>
</mask>
<g mask="url(#mask13_182_352)">
<path d="M306.275 233.615H289.419C282.576 233.615 277.028 227.888 277.028 220.822V216.989C277.028 208.889 283.389 202.322 291.234 202.322H292.068C299.914 202.322 306.275 208.889 306.275 216.989V233.615Z" fill="#1A2E35"/>
<path d="M278.912 206.195C279.949 206.408 280.621 207.449 280.415 208.52L276.662 207.746C276.869 206.677 277.876 205.983 278.912 206.195Z" fill="#1A2E35"/>
<path d="M281.362 205.354C281.689 206.392 281.138 207.506 280.133 207.842L278.953 204.083C279.957 203.747 281.037 204.316 281.362 205.354Z" fill="#1A2E35"/>
<path d="M306.701 380.402C308.399 382.321 310.271 383.859 312.281 385.412C312.581 385.644 312.892 385.891 313.056 386.24C313.319 386.804 313.728 388.204 311.233 389.102C308.795 389.98 305.755 389.775 303.534 388.339C301.485 387.016 301.393 384.261 299.46 382.689C298.027 381.526 296.238 381.226 295.081 379.705C294.274 378.647 294.484 377.238 294.905 375.493C295.364 373.589 295.576 372.148 296.186 372.294L296.086 373.17C296.847 374.425 300.796 374.796 302.553 373.929C302.553 373.929 305.594 379.15 306.701 380.402Z" fill="#1A2E35"/>
<path d="M308.432 382.182V382.169C307.839 381.608 307.258 381.029 306.701 380.4C305.988 379.594 304.469 377.139 303.48 375.496C302.877 374.498 302.439 373.303 302.577 371.986C302.715 370.67 303.068 367.293 303.068 367.293L296.812 366.836L296.086 373.169C295.934 374.604 297.082 375.878 299.119 377.689C301.154 379.5 303.739 383.724 305.582 384.787C307.426 385.849 308.742 385.81 309.529 385.266C310.338 384.706 310.417 384.278 308.432 382.182Z" fill="#C76668"/>
<path d="M282.914 380.979V380.008C283.285 381.147 285.004 386.048 287.613 388.505C289.686 390.458 292.514 392.712 293.234 394.89C293.984 397.154 289.298 397.915 287.361 397.561C285.11 397.149 282.197 395.831 280.611 393.82C279.497 392.406 278.787 390.73 277.992 389.618C277.196 388.507 275.361 387.265 274.93 385.978C274.694 385.272 274.975 383.723 275.307 382.415C275.612 381.215 275.943 379.896 276.339 380.008C276.34 380.154 276.339 380.748 276.339 380.748C276.816 381.295 278.137 381.836 279.626 381.895C280.589 381.933 282.922 381.736 282.914 380.979Z" fill="#1A2E35"/>
<path d="M289.489 390.223C288.846 389.63 288.198 389.051 287.612 388.498C285.79 386.782 284.4 383.871 283.603 381.885C283.147 380.751 282.913 379.541 282.913 378.313V374.445H276.339V380.742V380.911L276.371 380.927C276.689 382.338 279.705 386.09 281.419 388.537C282.567 390.177 284.751 392.263 287.36 392.622C289.832 392.963 291.096 392.158 289.489 390.223Z" fill="#C76668"/>
<path d="M277.647 275.493C272.55 286.987 277.831 327.472 277.831 327.472C277.677 329.337 275.612 333.007 274.842 341.215C273.933 350.914 276.27 375.268 276.27 375.268C276.27 375.268 279.313 377.323 282.914 375.54C282.914 375.54 289.179 338.862 290.357 329.218C291.385 320.803 293.359 301.022 293.359 301.022L298.482 329.399C298.482 329.399 296.816 334.018 296.48 337.61C295.948 343.282 296.348 369.519 296.348 369.519C296.348 369.519 298.594 371.284 302.9 370.629C302.9 370.629 310.358 334.712 310.936 327.886C311.279 323.808 306.778 273.812 306.778 273.812L277.647 275.493Z" fill="#2B454E"/>
<path d="M293.359 301.021L295.014 291.623C295.014 291.623 302.013 290.126 305.188 287.045C305.188 287.045 301.858 291.322 296.911 292.724L295.052 300.942L297.98 326.613L293.359 301.021Z" fill="#1A2E35"/>
<path d="M264.854 268.065C265.019 267.328 267.577 259.596 269.182 255.3L277.8 259.63L274.949 267.551L266.362 272.637C264.049 271.76 264.69 268.802 264.854 268.065Z" fill="#C76668"/>
<path d="M313.657 253.531L317.988 261.728L311.251 267.691L305.08 257.588L313.657 253.531Z" fill="#C76668"/>
<path d="M297.405 235.258C301.7 235.304 306.431 236.916 308.059 240.394C309.686 243.871 314.855 254.643 314.855 254.643C314.855 254.643 310.184 259.09 304.162 258.686L297.405 235.258Z" fill="#00DFBF"/>
<mask id="mask14_182_352" style="mask-type:luminance" maskUnits="userSpaceOnUse" x="297" y="235" width="18" height="24">
<path d="M297.405 235.258H314.855V258.711H297.405V235.258Z" fill="white"/>
</mask>
<g mask="url(#mask14_182_352)">
<g opacity="0.300003">
<path d="M297.405 235.258C301.7 235.304 306.431 236.916 308.059 240.394C309.686 243.871 314.855 254.643 314.855 254.643C314.855 254.643 310.184 259.09 304.162 258.686L297.405 235.258Z" fill="black"/>
</g>
</g>
<path d="M288.512 235.417L284.611 235.568C280.72 236.535 279.645 239.287 278.01 242.851C276.765 245.563 276.751 248.71 277.701 251.546L282.254 265.146C282.254 265.146 280.122 270.466 277.647 275.493C289.074 282.078 303.342 278.616 306.778 273.811C306.924 272.792 306.726 268.198 307.004 262.971C307.299 257.397 308.041 251.103 307.191 247.658C305.615 241.262 302.664 235.258 296.79 235.258L288.512 235.417Z" fill="#00DFBF"/>
<path d="M284.611 235.569C279.127 235.258 275.269 236.618 272.101 245.84C269.923 252.181 267.148 259.546 267.148 259.546C267.148 259.546 270.558 263.058 277.028 263.026C277.028 263.026 285.645 241.816 284.611 235.569Z" fill="#00DFBF"/>
<mask id="mask15_182_352" style="mask-type:luminance" maskUnits="userSpaceOnUse" x="267" y="235" width="18" height="29">
<path d="M267.148 235.529H284.697V263.026H267.148V235.529Z" fill="white"/>
</mask>
<g mask="url(#mask15_182_352)">
<g opacity="0.300003">
<path d="M284.611 235.569C279.127 235.258 275.269 236.618 272.101 245.84C269.923 252.181 267.148 259.546 267.148 259.546C267.148 259.546 270.558 263.058 277.028 263.026C277.028 263.026 285.645 241.816 284.611 235.569Z" fill="black"/>
</g>
</g>
<path d="M301.47 208.428C303.015 209.369 304.924 213.381 304.736 221.789C304.575 228.916 302.339 230.676 301.215 231.184C300.093 231.691 297.925 231.383 295.82 231.02V235.297C295.82 235.297 298.73 238.788 298.547 240.749C298.364 242.711 294.343 243.174 291.619 241.258C288.895 239.342 287.149 236.426 287.149 236.426V226.088C287.149 226.088 285.726 228.048 283.401 226.453C281.074 224.859 280.987 220.911 282.339 219.494C283.691 218.077 286.606 218.526 287.149 220.484C287.149 220.484 290.508 220.61 294.982 218.073C299.454 215.536 301.173 211.191 301.47 208.428Z" fill="#C76668"/>
<path d="M297.322 220.104C297.347 220.618 296.978 221.053 296.5 221.077C296.022 221.1 295.614 220.703 295.588 220.189C295.563 219.676 295.931 219.24 296.409 219.217C296.89 219.193 297.298 219.591 297.322 220.104Z" fill="#1A2E35"/>
<path d="M297.261 226.041L299.277 226.705C299.11 227.3 298.523 227.634 297.967 227.452C297.409 227.268 297.093 226.636 297.261 226.041Z" fill="#B0494C"/>
<path d="M304.146 217.248L302.39 215.991C302.711 215.473 303.363 215.335 303.848 215.682C304.333 216.029 304.467 216.73 304.146 217.248Z" fill="#1A2E35"/>
<path d="M303.89 219.944C303.915 220.457 303.547 220.893 303.069 220.916C302.59 220.939 302.182 220.542 302.156 220.028C302.132 219.515 302.5 219.08 302.978 219.056C303.457 219.033 303.866 219.431 303.89 219.944Z" fill="#1A2E35"/>
<path d="M299.647 218.839L299.785 224.233L302.535 223.353L299.647 218.839Z" fill="#B0494C"/>
<path d="M295.819 231.021C293.599 230.72 289.033 229.365 288.321 227.501C288.321 227.501 288.558 228.673 289.923 229.88C291.286 231.088 295.819 232.448 295.819 232.448V231.021Z" fill="#B0494C"/>
<path d="M329.251 249.348L299.577 259.88L290.304 299.568L318.737 288.706L329.251 249.348Z" fill="#F5F5F5"/>
<path d="M294.848 288.552L319.332 279.739L317.515 287.045L293.069 296.253L294.848 288.552Z" fill="#E1E1E1"/>
<path d="M310.265 277.485L309.588 281.972L319.678 278.089L320.976 273.454L310.265 277.485Z" fill="#E7E7E7"/>
<path d="M299.273 269.548L310.318 265.62L307.358 282.772L295.009 287.044L299.273 269.548Z" fill="#E1E1E1"/>
<path d="M324.424 260.322L321.446 271.47L310.606 275.61L312.477 265.002L324.424 260.322Z" fill="#E7E7E7"/>
<path d="M326.558 252.333L300.983 261.346L299.553 267.428L325.067 257.943L326.558 252.333Z" fill="#E1E1E1"/>
<mask id="mask16_182_352" style="mask-type:luminance" maskUnits="userSpaceOnUse" x="317" y="274" width="6" height="3">
<path d="M317.464 274.084H322.369V276.436H317.464V274.084Z" fill="white"/>
</mask>
<g mask="url(#mask16_182_352)">
<g opacity="0.149994">
<path d="M317.464 274.084C317.697 274.744 319.079 276.572 322.012 276.429L322.369 275.095L317.464 274.084Z" fill="black"/>
</g>
</g>
<mask id="mask17_182_352" style="mask-type:luminance" maskUnits="userSpaceOnUse" x="295" y="275" width="14" height="5">
<path d="M295.008 275.403H308.158V279.568H295.008V275.403Z" fill="white"/>
</mask>
<g mask="url(#mask17_182_352)">
<g opacity="0.149994">
<path d="M308.158 275.402C308.048 276.263 306.332 277.857 303.437 278.854C300.141 279.988 295.009 279.433 295.009 279.433L295.397 277.745L308.158 275.402Z" fill="black"/>
</g>
</g>
<path d="M266.363 272.637L275.381 266.354C275.381 266.354 288.924 271.513 290.929 271.676C292.934 271.837 295.16 270.377 295.924 268.344C296.689 266.313 298.035 266.565 298.035 266.565C298.035 266.565 297.442 269.14 297.252 269.963C297.064 270.785 301.869 271.461 304.533 270.529C307.198 269.598 311.055 270.95 308.665 274.696C306.275 278.443 301.63 278.875 298.401 278.878C297.509 278.878 295.922 278.808 294.364 278.599C293.32 278.459 292.281 278.351 291.231 278.273C284.624 277.787 269.366 273.61 266.363 272.637Z" fill="#C76668"/>
<path d="M325.824 262.161C325.824 262.161 324.94 265.483 324.725 266.276C324.509 267.069 321.578 268.51 319.726 269.035C317.874 269.561 315.848 270.183 316.724 272.857C317.533 275.323 320.582 275.886 322.133 275.817C323.684 275.747 325.809 274.215 326.646 271.747C327.713 268.598 327.138 265.235 327.562 263.395C327.986 261.557 326.752 261.064 325.824 262.161Z" fill="#C76668"/>
</g>
<path d="M419.17 236.179L460.877 208.602L479.249 214.692L419.17 236.179Z" fill="#00DFBF"/>
<path d="M419.17 236.179L455.218 205.142L447.207 195.592L419.17 236.179Z" fill="#00DFBF"/>
<path d="M455.217 205.141V212.344L419.17 236.178L455.217 205.141Z" fill="#00DFBF"/>
<mask id="mask18_182_352" style="mask-type:luminance" maskUnits="userSpaceOnUse" x="0" y="-9" width="493" height="509">
<path d="M0 -8.99994H493V500H0V-8.99994Z" fill="white"/>
</mask>
<g mask="url(#mask18_182_352)">
<mask id="mask19_182_352" style="mask-type:luminance" maskUnits="userSpaceOnUse" x="419" y="205" width="37" height="32">
<path d="M419.17 205.141H455.218V236.178H419.17V205.141Z" fill="white"/>
</mask>
<g mask="url(#mask19_182_352)">
<g opacity="0.300003">
<path d="M455.217 205.141V212.344L419.17 236.178L455.217 205.141Z" fill="black"/>
</g>
</g>
</g>
<path d="M364.331 235.289L395.092 214.949L408.643 219.441L364.331 235.289Z" fill="#00DFBF"/>
<path d="M364.331 235.289L390.919 212.397L385.01 205.353L364.331 235.289Z" fill="#00DFBF"/>
<path d="M390.918 212.397V217.709L364.331 235.289L390.918 212.397Z" fill="#00DFBF"/>
<mask id="mask20_182_352" style="mask-type:luminance" maskUnits="userSpaceOnUse" x="0" y="-9" width="493" height="509">
<path d="M0 -8.99994H493V500H0V-8.99994Z" fill="white"/>
</mask>
<g mask="url(#mask20_182_352)">
<mask id="mask21_182_352" style="mask-type:luminance" maskUnits="userSpaceOnUse" x="364" y="212" width="27" height="24">
<path d="M364.331 212.397H390.919V235.29H364.331V212.397Z" fill="white"/>
</mask>
<g mask="url(#mask21_182_352)">
<g opacity="0.300003">
<path d="M390.918 212.397V217.709L364.331 235.289L390.918 212.397Z" fill="black"/>
</g>
</g>
<path d="M413.841 123.077C413.716 123.077 413.587 123.044 413.471 122.974L411.683 121.905C411.329 121.694 411.209 121.226 411.413 120.862C411.619 120.497 412.071 120.372 412.424 120.584L414.213 121.653C414.566 121.865 414.686 122.332 414.482 122.696C414.345 122.941 414.096 123.077 413.841 123.077ZM423.226 128.69C423.1 128.69 422.972 128.657 422.856 128.587L417.737 125.525C417.384 125.315 417.263 124.847 417.467 124.482C417.673 124.117 418.125 123.993 418.478 124.204L423.597 127.266C423.95 127.478 424.071 127.945 423.866 128.309C423.728 128.554 423.48 128.69 423.226 128.69ZM432.61 134.303C432.485 134.303 432.357 134.271 432.241 134.201L427.122 131.139C426.768 130.928 426.648 130.461 426.852 130.096C427.058 129.732 427.51 129.606 427.864 129.818L432.982 132.879C433.335 133.09 433.456 133.557 433.252 133.923C433.114 134.167 432.866 134.303 432.61 134.303ZM441.996 139.917C441.871 139.917 441.743 139.884 441.626 139.814L436.506 136.752C436.153 136.541 436.033 136.074 436.237 135.708C436.443 135.344 436.895 135.219 437.247 135.43L442.368 138.493C442.721 138.704 442.841 139.172 442.637 139.536C442.499 139.78 442.25 139.917 441.996 139.917ZM451.276 145.703C451.13 145.703 450.983 145.659 450.854 145.567C449.399 144.519 447.85 143.515 446.255 142.583L445.892 142.365C445.538 142.153 445.417 141.687 445.623 141.322C445.827 140.958 446.28 140.834 446.633 141.044L446.989 141.257C448.618 142.21 450.206 143.239 451.699 144.312C452.035 144.554 452.117 145.029 451.884 145.376C451.741 145.589 451.51 145.703 451.276 145.703ZM459.479 152.995C459.282 152.995 459.084 152.914 458.938 152.752C457.639 151.314 456.217 149.923 454.713 148.616C454.401 148.344 454.361 147.862 454.623 147.54C454.886 147.216 455.353 147.176 455.666 147.447C457.214 148.794 458.68 150.228 460.019 151.71C460.298 152.019 460.282 152.501 459.984 152.789C459.841 152.927 459.66 152.995 459.479 152.995ZM465.839 162.027C465.577 162.027 465.323 161.883 465.189 161.63C464.277 159.905 463.221 158.209 462.049 156.587C461.805 156.25 461.872 155.772 462.198 155.52C462.529 155.267 462.991 155.337 463.234 155.674C464.447 157.352 465.543 159.11 466.487 160.898C466.683 161.268 466.55 161.731 466.193 161.933C466.079 161.997 465.958 162.027 465.839 162.027ZM469.614 172.479C469.273 172.479 468.965 172.233 468.892 171.875C468.498 169.952 467.939 168.026 467.23 166.151C467.082 165.758 467.27 165.314 467.651 165.161C468.031 165.011 468.461 165.203 468.609 165.596C469.346 167.549 469.928 169.555 470.339 171.558C470.423 171.97 470.168 172.377 469.769 172.463C469.716 172.474 469.665 172.479 469.614 172.479ZM470.127 183.612C470.097 183.612 470.067 183.61 470.037 183.607C469.632 183.556 469.343 183.177 469.391 182.757C469.539 181.489 469.613 180.193 469.612 178.909C469.612 178.211 469.59 177.502 469.548 176.801C469.522 176.379 469.831 176.017 470.238 175.992C470.643 175.949 470.998 176.284 471.023 176.704C471.068 177.437 471.091 178.179 471.091 178.908C471.092 180.253 471.014 181.61 470.86 182.94C470.815 183.328 470.495 183.612 470.127 183.612ZM466.992 194.272C466.88 194.272 466.764 194.244 466.656 194.188C466.293 193.996 466.149 193.536 466.334 193.16C467.207 191.398 467.917 189.536 468.445 187.624C468.558 187.221 468.961 186.984 469.36 187.1C469.751 187.216 469.98 187.639 469.867 188.044C469.313 190.05 468.568 192.006 467.652 193.855C467.521 194.119 467.262 194.272 466.992 194.272ZM460.464 203.141C460.266 203.141 460.067 203.058 459.921 202.896C459.643 202.587 459.662 202.103 459.961 201.817C461.384 200.459 462.677 198.966 463.809 197.38C464.05 197.04 464.513 196.968 464.843 197.218C465.172 197.467 465.242 197.946 464.999 198.285C463.813 199.949 462.457 201.514 460.967 202.938C460.824 203.073 460.644 203.141 460.464 203.141Z" fill="#E7E7E7"/>
<path d="M406.613 133.387C406.482 133.387 406.35 133.351 406.231 133.277C403.338 131.471 401.444 130.295 401.165 130.132C400.809 129.925 400.684 129.46 400.885 129.092C401.087 128.726 401.539 128.596 401.893 128.804C402.313 129.048 405.602 131.1 406.996 131.97C407.345 132.188 407.458 132.658 407.247 133.019C407.107 133.256 406.863 133.387 406.613 133.387ZM415.472 139.826C415.297 139.826 415.122 139.762 414.981 139.632C413.567 138.336 412.021 137.098 410.387 135.953C410.049 135.716 409.961 135.241 410.191 134.893C410.417 134.543 410.878 134.451 411.217 134.689C412.904 135.871 414.501 137.151 415.963 138.491C416.268 138.771 416.296 139.254 416.025 139.569C415.878 139.739 415.676 139.826 415.472 139.826ZM422.508 148.297C422.262 148.297 422.023 148.17 421.882 147.94C420.868 146.285 419.698 144.679 418.401 143.164C418.131 142.848 418.16 142.366 418.465 142.086C418.769 141.807 419.239 141.835 419.508 142.153C420.857 143.728 422.077 145.4 423.132 147.125C423.351 147.481 423.247 147.953 422.902 148.178C422.779 148.258 422.643 148.297 422.508 148.297ZM426.76 158.544C426.428 158.544 426.125 158.311 426.043 157.963C425.585 156.044 424.953 154.146 424.164 152.325C423.998 151.94 424.164 151.488 424.537 151.316C424.91 151.144 425.347 151.315 425.514 151.701C426.339 153.606 427.001 155.591 427.479 157.598C427.577 158.007 427.334 158.421 426.938 158.521C426.879 158.537 426.819 158.544 426.76 158.544ZM427.586 169.655C427.565 169.655 427.544 169.654 427.523 169.653C427.116 169.618 426.814 169.248 426.848 168.828C426.928 167.85 426.969 166.866 426.969 165.905C426.969 164.889 426.925 163.866 426.836 162.863C426.8 162.443 427.099 162.072 427.506 162.034C427.894 161.998 428.272 162.305 428.309 162.725C428.402 163.773 428.448 164.843 428.448 165.905C428.448 166.909 428.406 167.936 428.322 168.957C428.289 169.355 427.966 169.655 427.586 169.655ZM425.085 180.511C424.996 180.511 424.905 180.494 424.816 180.458C424.435 180.304 424.248 179.862 424.397 179.469C425.115 177.58 425.69 175.656 426.107 173.75C426.196 173.338 426.593 173.077 426.991 173.174C427.389 173.265 427.64 173.675 427.549 174.086C427.115 176.068 426.518 178.066 425.774 180.026C425.659 180.327 425.381 180.511 425.085 180.511ZM419.931 190.333C419.784 190.333 419.638 190.288 419.508 190.194C419.173 189.953 419.092 189.477 419.327 189.132C420.459 187.46 421.483 185.736 422.371 184.009C422.563 183.638 423.01 183.495 423.371 183.694C423.731 183.89 423.868 184.352 423.677 184.725C422.761 186.506 421.705 188.284 420.538 190.007C420.395 190.22 420.165 190.333 419.931 190.333ZM412.888 198.823C412.696 198.823 412.504 198.746 412.358 198.591C412.074 198.289 412.081 197.806 412.374 197.512C413.791 196.089 415.133 194.606 416.36 193.106C416.623 192.784 417.088 192.745 417.402 193.015C417.715 193.287 417.753 193.77 417.49 194.091C416.231 195.63 414.855 197.149 413.404 198.607C413.26 198.751 413.075 198.823 412.888 198.823ZM404.662 206.115C404.45 206.115 404.238 206.02 404.092 205.837C403.833 205.512 403.877 205.031 404.192 204.763L408.755 200.875C409.067 200.609 409.537 200.652 409.796 200.978C410.056 201.303 410.011 201.784 409.697 202.053L405.134 205.94C404.995 206.057 404.829 206.115 404.662 206.115ZM397.178 212.491C396.965 212.491 396.753 212.396 396.609 212.213C396.348 211.888 396.393 211.407 396.707 211.138L400.389 208.002C400.701 207.736 401.169 207.779 401.429 208.105C401.689 208.43 401.645 208.911 401.331 209.18L397.649 212.316C397.512 212.433 397.345 212.491 397.178 212.491Z" fill="#E7E7E7"/>
</g>
</svg>
