<svg width="41" height="34" viewBox="0 0 41 34" fill="none" xmlns="http://www.w3.org/2000/svg">
<path d="M2.75211 14.6157C15.3201 9.08668 31.5841 2.34568 33.8291 1.41268C39.7181 -1.02932 41.5251 -0.561319 40.6241 4.84668C39.9771 8.73368 38.1101 21.6027 36.6221 29.6127C35.7391 34.3627 33.7581 34.9257 30.6431 32.8707C29.1451 31.8817 21.5841 26.8817 19.9431 25.7077C18.4451 24.6377 16.3791 23.3507 18.9701 20.8157C19.8921 19.9127 25.9361 14.1417 30.6451 9.64968C31.2621 9.05968 30.4871 8.09068 29.7751 8.56368C23.4281 12.7727 14.6281 18.6147 13.5081 19.3757C11.8161 20.5247 10.1911 21.0517 7.27411 20.2137C5.07011 19.5807 2.91711 18.8257 2.07911 18.5377C-1.14789 17.4297 -0.381894 15.9947 2.75211 14.6157Z" fill="white"/>
</svg>
